<?xml version="1.0" encoding="iso-8859-1"?>
<!-- Generator: Adobe Illustrator 15.0.0, SVG Export Plug-In . SVG Version: 6.00 Build 0)  -->
<!DOCTYPE svg PUBLIC "-//W3C//DTD SVG 1.1//EN" "http://www.w3.org/Graphics/SVG/1.1/DTD/svg11.dtd">
<svg version="1.1" id="Layer_1" xmlns="http://www.w3.org/2000/svg" xmlns:xlink="http://www.w3.org/1999/xlink" x="0px" y="0px"
	 width="47.707px" height="24.756px" viewBox="0 0 47.707 24.756" style="enable-background:new 0 0 47.707 24.756;"
	 xml:space="preserve">
<g id="_x31_0">
	<path style="fill:#333;" d="M9.246,17.8c1.084,0,1.967-0.881,1.967-1.967s-0.883-1.967-1.967-1.967H1.969
		C0.881,13.866,0,14.747,0,15.833s0.881,1.967,1.969,1.966L9.246,17.8z"/>
	<path style="fill:#333;" d="M23.855,17.8c1.084,0,1.965-0.881,1.965-1.967c-0.002-1.086-0.881-1.967-1.965-1.967h-7.279
		c-1.088,0-1.969,0.881-1.969,1.967s0.881,1.967,1.969,1.966L23.855,17.8z"/>
	<path style="fill:#333;" d="M38.461,17.8c1.088,0,1.969-0.881,1.969-1.967s-0.881-1.967-1.969-1.967h-7.279
		c-1.086,0-1.965,0.881-1.965,1.967s0.879,1.967,1.965,1.966L38.461,17.8z"/>
	<path style="fill:#333;" d="M9.246,3.886c1.084,0,1.967-0.879,1.967-1.965S10.33-0.046,9.246-0.046H1.969
		C0.881-0.046,0,0.834,0,1.921c0,1.086,0.881,1.965,1.969,1.965H9.246z"/>
	<path style="fill:#333;" d="M23.855,3.886c1.084,0,1.965-0.879,1.965-1.965c-0.002-1.086-0.881-1.967-1.965-1.967h-7.279
		c-1.088,0-1.969,0.881-1.969,1.967s0.881,1.965,1.969,1.965H23.855z"/>
	<path style="fill:#333;" d="M38.461,3.886c1.088,0,1.969-0.879,1.969-1.965s-0.881-1.967-1.969-1.967h-7.279
		c-1.086,0-1.965,0.881-1.965,1.967s0.879,1.965,1.965,1.965H38.461z"/>
	<path style="fill:#333;" d="M16.525,24.756c1.084,0,1.965-0.88,1.965-1.967c0-1.085-0.881-1.966-1.965-1.966H9.246
		c-1.088,0-1.967,0.881-1.967,1.966c0,1.087,0.879,1.967,1.967,1.966L16.525,24.756z"/>
	<path style="fill:#333;" d="M31.133,24.756c1.086,0,1.967-0.88,1.967-1.967c-0.002-1.085-0.883-1.966-1.967-1.966h-7.277
		c-1.09,0-1.967,0.881-1.967,1.966c0,1.087,0.877,1.967,1.967,1.966L31.133,24.756z"/>
	<path style="fill:#333;" d="M45.74,24.756c1.086,0,1.967-0.88,1.967-1.967c0-1.085-0.881-1.966-1.967-1.966h-7.279
		c-1.086,0-1.965,0.881-1.965,1.966c0,1.087,0.879,1.967,1.965,1.966L45.74,24.756z"/>
	<path style="fill:#333;" d="M16.525,10.843c1.084,0,1.965-0.88,1.965-1.967c0-1.085-0.881-1.966-1.965-1.966H9.246
		c-1.088,0-1.967,0.881-1.967,1.966c0,1.087,0.879,1.967,1.967,1.966L16.525,10.843z"/>
	<path style="fill:#333;" d="M31.133,10.843c1.086,0,1.967-0.88,1.967-1.967c-0.002-1.085-0.883-1.966-1.967-1.966h-7.277
		c-1.09,0-1.967,0.881-1.967,1.966c0,1.087,0.877,1.967,1.967,1.966L31.133,10.843z"/>
	<path style="fill:#333;" d="M45.74,10.843c1.086,0,1.967-0.88,1.967-1.967c0-1.085-0.881-1.966-1.967-1.966h-7.279
		c-1.086,0-1.965,0.881-1.965,1.966c0,1.087,0.879,1.967,1.965,1.966L45.74,10.843z"/>
</g>
</svg>
