<?xml version="1.0" encoding="iso-8859-1"?>
<!-- Generator: Adobe Illustrator 15.0.0, SVG Export Plug-In . SVG Version: 6.00 Build 0)  -->
<!DOCTYPE svg PUBLIC "-//W3C//DTD SVG 1.1//EN" "http://www.w3.org/Graphics/SVG/1.1/DTD/svg11.dtd">
<svg version="1.1" id="Layer_1" xmlns="http://www.w3.org/2000/svg" xmlns:xlink="http://www.w3.org/1999/xlink" x="0px" y="0px"
	 width="43.244px" height="42.545px" viewBox="0 0 43.244 42.545" style="enable-background:new 0 0 43.244 42.545;"
	 xml:space="preserve">
<g id="_x32_3">
	<path style="fill:#333;" d="M32.377,13.823c1.451-0.588,2.901-0.541,3.317-0.541c2.082,0,4.597,1.82,4.597,4.81
		c0,2.54-2.06,4.599-4.597,4.599h-0.2c-0.777,0-1.408,0.631-1.408,1.408c0,0.775,0.631,1.404,1.408,1.404h0.194
		c4.172,0,7.556-3.381,7.556-7.555c0,0,0.039-7.546-7.902-7.546c-1.717-7.069-8.332-7.428-10.188-6.929
		C23.142,1.47,19.793,0,16.404,0C9.689,0,4.186,5.192,3.689,11.783C1.486,13.052,0,15.429,0,18.153c0,4.06,3.291,7.35,7.35,7.35
		h0.992c0.637,0,1.236-0.689,1.236-1.406c0-0.777-0.631-1.406-1.408-1.406H7.986c-2.746,0-4.77-1.987-4.77-4.559
		c0-2.098,1.332-3.939,3.416-4.567C6.88,3.643,15.595,3.136,16.564,3.136c2.879,0,5.734,1.413,7.572,3.503
		C27.854,5.418,32.946,8.283,32.377,13.823z"/>
	<g>
		<g>
			<path style="fill:#333;" d="M16.799,23.374c0.412-0.713,0.168-1.627-0.547-2.039c-0.713-0.412-1.627-0.168-2.039,0.546
				L8.025,32.17c-0.412,0.714-0.166,1.627,0.547,2.04c0.715,0.412,1.627,0.167,2.037-0.547L16.799,23.374z"/>
			<path style="fill:#333;" d="M23.834,23.374c0.412-0.713,0.166-1.627-0.549-2.039c-0.714-0.412-1.627-0.168-2.039,0.546
				l-10.68,18.425c-0.412,0.715-0.168,1.627,0.547,2.039c0.715,0.412,1.627,0.168,2.039-0.545L23.834,23.374z"/>
			<path style="fill:#333;" d="M30.865,23.374c0.413-0.713,0.168-1.627-0.548-2.039c-0.713-0.412-1.625-0.168-2.039,0.546
				l-6.188,10.647c-0.412,0.715-0.168,1.629,0.545,2.041c0.715,0.412,1.629,0.168,2.041-0.547L30.865,23.374z"/>
		</g>
	</g>
</g>
</svg>
