<?xml version="1.0" encoding="iso-8859-1"?>
<!-- Generator: Adobe Illustrator 15.0.0, SVG Export Plug-In . SVG Version: 6.00 Build 0)  -->
<!DOCTYPE svg PUBLIC "-//W3C//DTD SVG 1.1//EN" "http://www.w3.org/Graphics/SVG/1.1/DTD/svg11.dtd">
<svg version="1.1" id="Layer_1" xmlns="http://www.w3.org/2000/svg" xmlns:xlink="http://www.w3.org/1999/xlink" x="0px" y="0px"
	 width="43.244px" height="33.704px" viewBox="0 0 43.244 33.704" style="enable-background:new 0 0 43.244 33.704;"
	 xml:space="preserve">
<g id="_x32_5">
	<g>
		<path style="fill:#333;" d="M24.054,24.627l-0.947-0.545l0.947-0.547c0.327-0.188,0.438-0.605,0.25-0.934
			c-0.189-0.326-0.607-0.438-0.933-0.25l-0.947,0.547v-1.092c0-0.378-0.305-0.684-0.682-0.684c-0.379,0-0.684,0.306-0.684,0.684
			v1.092l-0.947-0.547c-0.326-0.188-0.742-0.076-0.932,0.25c-0.188,0.327-0.076,0.744,0.25,0.934l0.945,0.547l-0.945,0.545
			c-0.326,0.188-0.438,0.605-0.25,0.935c0.189,0.326,0.605,0.438,0.932,0.249l0.947-0.548v1.094c0,0.379,0.305,0.685,0.684,0.685
			c0.377,0,0.682-0.306,0.682-0.685v-1.094l0.947,0.548c0.323,0.188,0.741,0.077,0.933-0.249
			C24.493,25.236,24.381,24.817,24.054,24.627z"/>
		<path style="fill:#333;" d="M31.472,24.627l-0.947-0.545l0.947-0.547c0.325-0.188,0.438-0.605,0.25-0.934
			c-0.188-0.326-0.605-0.438-0.935-0.25l-0.947,0.547v-1.092c0-0.378-0.303-0.684-0.682-0.684c-0.377,0-0.685,0.306-0.685,0.684
			v1.092l-0.945-0.547c-0.323-0.188-0.741-0.076-0.932,0.25c-0.188,0.327-0.076,0.744,0.25,0.934l0.945,0.547l-0.945,0.545
			c-0.326,0.188-0.438,0.605-0.25,0.935c0.188,0.326,0.607,0.438,0.932,0.249l0.945-0.548v1.094c0,0.379,0.308,0.685,0.685,0.685
			c0.379,0,0.682-0.306,0.682-0.685v-1.094l0.947,0.548c0.328,0.188,0.746,0.077,0.935-0.249
			C31.91,25.235,31.797,24.817,31.472,24.627z"/>
		<path style="fill:#333;" d="M16.635,24.627l-0.945-0.545l0.945-0.547c0.326-0.188,0.439-0.605,0.25-0.934
			c-0.188-0.326-0.604-0.438-0.932-0.25l-0.947,0.547v-1.092c0-0.378-0.305-0.684-0.684-0.684c-0.377,0-0.68,0.306-0.68,0.684v1.092
			l-0.947-0.547c-0.328-0.188-0.744-0.076-0.934,0.25c-0.188,0.327-0.076,0.744,0.25,0.934l0.947,0.547l-0.947,0.545
			c-0.326,0.188-0.438,0.605-0.25,0.935c0.189,0.326,0.605,0.438,0.934,0.249l0.947-0.548v1.094c0,0.379,0.303,0.685,0.68,0.685
			c0.379,0,0.684-0.306,0.684-0.685v-1.094l0.947,0.548c0.328,0.188,0.744,0.077,0.932-0.249
			C17.074,25.235,16.961,24.817,16.635,24.627z"/>
		<path style="fill:#333;" d="M20.209,31.293l-0.949-0.547l0.949-0.547c0.324-0.189,0.438-0.605,0.248-0.934
			c-0.189-0.326-0.607-0.438-0.934-0.249l-0.945,0.548v-1.094c0-0.377-0.307-0.684-0.684-0.684c-0.375,0-0.682,0.307-0.682,0.684
			v1.094l-0.945-0.548c-0.326-0.188-0.746-0.076-0.934,0.249c-0.189,0.326-0.076,0.744,0.25,0.934l0.945,0.547l-0.945,0.547
			c-0.326,0.188-0.439,0.604-0.25,0.933c0.188,0.325,0.607,0.438,0.934,0.25l0.945-0.548v1.094c0,0.378,0.307,0.684,0.682,0.684
			c0.377,0,0.684-0.306,0.684-0.684v-1.093l0.945,0.547c0.326,0.188,0.744,0.075,0.934-0.25
			C20.647,31.9,20.533,31.481,20.209,31.293z"/>
		<path style="fill:#333;" d="M27.306,31.293l-0.947-0.547l0.947-0.547c0.325-0.189,0.438-0.605,0.25-0.934
			c-0.188-0.326-0.605-0.438-0.935-0.249l-0.945,0.548v-1.094c0-0.377-0.307-0.684-0.682-0.684c-0.379,0-0.685,0.307-0.685,0.684
			v1.094l-0.947-0.548c-0.325-0.188-0.741-0.076-0.934,0.249c-0.188,0.326-0.076,0.744,0.25,0.934l0.947,0.547l-0.947,0.547
			c-0.326,0.188-0.438,0.604-0.25,0.933c0.191,0.325,0.607,0.438,0.934,0.25l0.947-0.548v1.094c0,0.378,0.306,0.684,0.685,0.684
			c0.375,0,0.682-0.306,0.682-0.684v-1.093l0.945,0.547c0.328,0.188,0.746,0.075,0.935-0.25
			C27.744,31.899,27.631,31.481,27.306,31.293z"/>
	</g>
	<path style="fill:#333;" d="M32.377,13.823c1.449-0.588,2.901-0.541,3.315-0.541c2.082,0,4.597,1.821,4.597,4.81
		c0,2.539-2.058,4.598-4.597,4.598h-0.215c-0.774,0-1.406,0.632-1.406,1.409c0,0.774,0.632,1.403,1.406,1.403h0.209
		c4.174,0,7.558-3.381,7.558-7.553c0,0,0.037-7.548-7.904-7.548c-1.717-7.069-8.332-7.428-10.188-6.929
		C23.142,1.472,19.791,0,16.404,0C9.688,0,4.186,5.193,3.688,11.783C1.484,13.052,0,15.429,0,18.153c0,4.061,3.289,7.35,7.35,7.35
		h1.025c0.637,0,1.236-0.688,1.236-1.406c0-0.776-0.633-1.406-1.406-1.406H7.984c-2.744,0-4.771-1.986-4.771-4.557
		c0-2.099,1.334-3.94,3.418-4.568c0.248-9.921,8.963-10.428,9.932-10.428c2.879,0,5.736,1.412,7.572,3.502
		C27.853,5.419,32.946,8.283,32.377,13.823z"/>
</g>
</svg>
