<?xml version="1.0" encoding="iso-8859-1"?>
<!-- Generator: Adobe Illustrator 15.0.0, SVG Export Plug-In . SVG Version: 6.00 Build 0)  -->
<!DOCTYPE svg PUBLIC "-//W3C//DTD SVG 1.1//EN" "http://www.w3.org/Graphics/SVG/1.1/DTD/svg11.dtd">
<svg version="1.1" id="Layer_1" xmlns="http://www.w3.org/2000/svg" xmlns:xlink="http://www.w3.org/1999/xlink" x="0px" y="0px"
	 width="54.488px" height="50.443px" viewBox="0 0 54.488 50.443" style="enable-background:new 0 0 54.488 50.443;"
	 xml:space="preserve">
<g id="_x31_3">
	<g>
		<path style="fill:#333;" d="M47.298,29.568c0.582,0.584,1.527,0.584,2.109,0.002c0.582-0.584,0.582-1.526,0-2.108l-2.342-2.342
			c-0.582-0.582-1.527-0.582-2.109,0s-0.582,1.524,0,2.106L47.298,29.568z"/>
		<g>
			<path style="fill:#333;" d="M38.677,1.49c0-0.824-0.668-1.49-1.489-1.49c-0.824,0-1.49,0.666-1.492,1.49l0.002,3.311
				c0,0.826,0.666,1.492,1.49,1.492c0.821,0,1.489-0.666,1.489-1.492V1.49z"/>
			<path style="fill:#333;" d="M27.048,5.061c-0.584-0.582-1.526-0.582-2.11,0c-0.58,0.582-0.58,1.527,0,2.109l2.342,2.342
				c0.582,0.582,1.527,0.582,2.109,0c0.584-0.584,0.584-1.525,0-2.109L27.048,5.061z"/>
			<path style="fill:#333;" d="M52.997,18.82c0.824,0,1.492-0.668,1.492-1.489c0-0.824-0.668-1.492-1.492-1.492h-3.312
				c-0.822,0-1.49,0.668-1.49,1.492c0,0.821,0.668,1.489,1.49,1.487L52.997,18.82z"/>
			<path style="fill:#333;" d="M49.425,7.189c0.587-0.582,0.587-1.526,0-2.108c-0.582-0.582-1.524-0.582-2.106,0l-2.342,2.344
				c-0.582,0.58-0.582,1.525,0,2.107c0.584,0.581,1.526,0.581,2.106,0L49.425,7.189z"/>
			<path style="fill:#333;" d="M46.454,17.346c0-5.117-4.147-9.268-9.268-9.268c-3.025,0-5.713,1.45-7.404,3.692
				c-1.9-0.676-3.727-0.627-4.57-0.399c-2.012-2.002-5.36-3.474-8.748-3.474c-6.715,0-12.219,5.191-12.715,11.783
				C1.546,20.951,0.06,23.326,0.06,26.05c0,4.061,3.291,7.352,7.35,7.352h0.992c0.686,0,1.233-0.69,1.233-1.407
				c0-0.777-0.631-1.406-1.405-1.406H8.046c-2.746,0-4.77-1.986-4.77-4.557c0-2.101,1.332-3.941,3.416-4.57
				c0.248-9.92,8.963-10.426,9.932-10.426c2.879,0,5.736,1.411,7.572,3.502c3.717-1.222,8.811,1.645,8.24,7.184
				c1.451-0.588,2.903-0.541,3.317-0.541c2.08,0,4.597,1.822,4.597,4.812c0,2.538-2.06,4.598-4.597,4.598h-0.203
				c-0.776,0-1.407,0.631-1.407,1.408c0,0.774,0.631,1.405,1.407,1.405h0.197c4.172,0,7.556-3.383,7.556-7.555
				c0,0,0.004-0.572-0.158-1.402C45.169,22.746,46.454,20.197,46.454,17.346z M41.972,21.459c-1.08-1.66-3.031-3.158-6.57-3.158
				c-0.574-2.365-1.697-3.979-3.006-5.061c1.155-1.351,2.873-2.203,4.791-2.203c3.483,0,6.309,2.823,6.309,6.309
				C43.495,18.918,42.921,20.355,41.972,21.459z"/>
			<path style="fill:#333;" d="M47.054,25.154c-0.584-0.584-1.527-0.584-2.111,0c-0.582,0.582-0.582,1.529,0.002,2.111
				l2.344,2.346c0.582,0.584,1.529,0.584,2.111,0s0.582-1.528,0-2.11L47.054,25.154z"/>
			<path style="fill:#333;" d="M52.993,15.859h-3.313c-0.824,0-1.494,0.668-1.494,1.494c0,0.824,0.67,1.492,1.494,1.492h3.313
				c0.828,0,1.496-0.668,1.496-1.492C54.489,16.527,53.821,15.859,52.993,15.859z"/>
		</g>
	</g>
	<g>
		<path style="fill:#333;" d="M16.858,31.271c0.412-0.713,0.168-1.625-0.547-2.039c-0.713-0.412-1.627-0.168-2.039,0.547
			L8.085,40.068c-0.412,0.714-0.166,1.625,0.549,2.041c0.714,0.41,1.625,0.166,2.035-0.549L16.858,31.271z"/>
		<path style="fill:#333;" d="M23.892,31.271c0.414-0.713,0.168-1.625-0.547-2.039c-0.714-0.412-1.628-0.168-2.039,0.547
			L10.626,48.205c-0.412,0.713-0.168,1.627,0.547,2.039c0.716,0.412,1.627,0.168,2.039-0.548L23.892,31.271z"/>
		<path style="fill:#333;" d="M30.925,31.271c0.414-0.713,0.168-1.625-0.547-2.039c-0.713-0.412-1.627-0.168-2.039,0.547
			l-6.188,10.648c-0.412,0.715-0.168,1.627,0.545,2.041c0.715,0.41,1.629,0.166,2.041-0.547L30.925,31.271z"/>
	</g>
</g>
</svg>
